<?xml version="1.0" encoding="utf-8"?>
<!-- Generator: Adobe Illustrator 19.2.1, SVG Export Plug-In . SVG Version: 6.00 Build 0)  -->
<svg version="1.2" baseProfile="tiny" id="Layer_1" xmlns="http://www.w3.org/2000/svg" xmlns:xlink="http://www.w3.org/1999/xlink"
	 x="0px" y="0px" viewBox="0 0 680 60" xml:space="preserve">
<g>
	<path fill="#FFFFFF" d="M372.3,20.1c-0.6-1.4-1.5-2.4-2.7-2.9s-2.8-0.8-4.8-0.8h-19.3v13.1h0.1h17.2c1.2,0,2.4,0,3.7-0.1
		c1.3-0.1,2.4-0.4,3.4-1.1c0.6-0.4,1.2-0.8,1.5-1.3c0.4-0.5,0.7-0.9,0.9-1.4s0.4-1,0.4-1.4c0-0.4,0.1-0.9,0.1-1.3
		c0-0.4,0-0.9-0.1-1.4C372.6,21,372.5,20.6,372.3,20.1z"/>
	<path fill="#FFFFFF" d="M422.4,23.7c-0.5-1-1.1-2-1.8-3c-0.8-0.9-1.7-1.7-2.7-2.5c-0.4-0.3-0.9-0.6-1.6-0.9s-1.5-0.7-2.5-1
		s-2.1-0.6-3.3-0.8c-1.3-0.1-2.6-0.1-4-0.1c-2.7,0.1-5.1,0.7-7,1.6c-2,0.9-3.6,2.1-4.8,3.5c-1.3,1.4-2.2,3-2.8,4.8s-0.9,3.5-0.9,5.3
		c0,2.3,0.4,4.4,1.3,6.3c0.8,1.8,2,3.4,3.5,4.7c1.5,1.3,3.2,2.3,5.2,2.9c2,0.7,4.2,1,6.5,1c2.2,0,4.4-0.3,6.3-1c2-0.7,3.7-1.7,5.2-3
		s2.6-2.9,3.5-4.8c0.8-1.9,1.3-4.1,1.3-6.5c0-1.1-0.1-2.1-0.3-3.3C423.3,25.8,422.9,24.7,422.4,23.7z"/>
	<path fill="#FFFFFF" d="M270,27.3c0.6-0.6,1-1.4,1.2-2.2c0.3-0.8,0.4-1.6,0.4-2.4c0-1.1-0.2-2.1-0.7-3c-0.4-0.9-1-1.5-1.6-2
		c-0.9-0.7-1.8-1.1-2.8-1.2s-2-0.2-2.9-0.2h-20.2v13.2h18.1c1.7,0,3.3-0.1,4.8-0.3S269,28.4,270,27.3z"/>
	<path fill="#FFFFFF" d="M323.1,23.7c-0.5-1-1.1-2-1.8-3c-0.8-0.9-1.7-1.7-2.7-2.5c-0.4-0.3-0.9-0.6-1.6-0.9c-0.7-0.4-1.5-0.7-2.5-1
		s-2.1-0.6-3.3-0.8c-1.3-0.1-2.6-0.1-4-0.1c-2.7,0.1-5.1,0.7-7,1.6c-2,0.9-3.6,2.1-4.8,3.5c-1.3,1.4-2.2,3-2.8,4.8s-0.9,3.5-0.9,5.3
		c0,2.3,0.4,4.4,1.3,6.3c0.8,1.8,2,3.4,3.5,4.7c1.5,1.3,3.2,2.3,5.2,2.9c2,0.7,4.2,1,6.5,1c2.2,0,4.4-0.3,6.3-1c2-0.7,3.7-1.7,5.2-3
		s2.6-2.9,3.5-4.8c0.8-1.9,1.3-4.1,1.3-6.5c0-1.1-0.1-2.1-0.3-3.3C324,25.8,323.6,24.7,323.1,23.7z"/>
	<polygon fill="#FFFFFF" points="55.6,36 74.8,36 65.1,16.6 	"/>
	<path fill="#FFFFFF" d="M0,0v60h680V0H0z M80.5,47.5l-4.4-8.8H54.3L50,47.5h-3.4l16.7-33.9h3.6L84,47.5H80.5z M131.5,47.5h-3
		l-29-29.6v29.6h-3V13.6h3l29,29.7V13.6h3V47.5z M176.6,16.4H162v31.1h-3.2V16.4h-15.2v-2.8h33V16.4z M223.8,47.5h-3.3V30.9h-28.4
		v16.6h-3.3V13.6h3.3v14.5h28.4V13.6h3.3V47.5z M272,47.4l-13.4-15.1h-15.5v15.1h-3.3V13.6h23.6c1.2,0,2.4,0.1,3.7,0.2
		c1.3,0.1,2.6,0.5,3.7,1.1c1.3,0.7,2.4,1.8,3.1,3.2c0.8,1.4,1.2,3,1.2,4.7c0,1.2-0.2,2.5-0.7,3.8c-0.5,1.3-1.3,2.4-2.6,3.4
		c-0.6,0.5-1.3,0.9-2.1,1.2c-0.8,0.3-1.5,0.5-2.3,0.7c-0.8,0.2-1.6,0.3-2.3,0.3c-0.8,0-1.4,0.1-2.1,0.1l13.6,15.1H272z M326.8,37.4
		c-0.9,2.2-2.3,4.1-4.1,5.7c-1.8,1.6-3.9,2.9-6.4,3.9s-5.3,1.4-8.4,1.4c-3,0-5.7-0.4-8.1-1.3c-2.4-0.9-4.5-2.1-6.2-3.7
		c-1.7-1.6-3.1-3.5-4-5.7c-0.9-2.2-1.4-4.6-1.4-7.1s0.5-4.8,1.4-7c0.9-2.2,2.3-4.1,4-5.7c1.7-1.6,3.9-2.9,6.3-3.8
		c2.5-1.1,5.3-1.6,8.4-1.6c3.4,0,6.3,0.6,8.8,1.6s4.6,2.4,6.2,4.1c1.6,1.7,2.9,3.6,3.7,5.7c0.8,2.1,1.2,4.3,1.2,6.5
		C328.2,32.9,327.7,35.2,326.8,37.4z M375.3,27.5c-0.8,1.4-1.8,2.4-3.2,3.2c-1.3,0.8-2.7,1.2-4.2,1.4c-1.4,0.1-2.7,0.2-3.9,0.2
		h-18.4v15.2h-3.3V13.6h22.3c0.8,0,1.6,0,2.4,0s1.7,0.1,2.5,0.3c0.8,0.2,1.6,0.5,2.4,0.9c0.8,0.4,1.5,0.9,2.2,1.6
		c0.8,0.8,1.4,1.8,1.8,2.9c0.4,1.1,0.6,2.3,0.6,3.5C376.5,24.6,376.1,26.1,375.3,27.5z M426.1,37.4c-0.9,2.2-2.3,4.1-4.1,5.7
		c-1.8,1.6-3.9,2.9-6.4,3.9s-5.3,1.4-8.4,1.4c-3,0-5.7-0.4-8.1-1.3c-2.4-0.9-4.5-2.1-6.2-3.7c-1.7-1.6-3.1-3.5-4-5.7
		c-0.9-2.2-1.4-4.6-1.4-7.1s0.5-4.8,1.4-7c0.9-2.2,2.3-4.1,4-5.7c1.7-1.6,3.9-2.9,6.3-3.8c2.5-1.1,5.3-1.6,8.4-1.6
		c3.4,0,6.3,0.6,8.8,1.6s4.6,2.4,6.2,4.1c1.6,1.7,2.9,3.6,3.7,5.7c0.8,2.1,1.2,4.3,1.2,6.5C427.5,32.9,427,35.2,426.1,37.4z
		 M475.3,39.9c-0.3,0.5-0.8,1.1-1.3,1.7c-1.1,1.3-2.2,2.3-3.4,3.2c-1.2,0.8-2.5,1.5-3.8,2.1c-1.3,0.5-2.7,0.9-4.1,1.1
		c-1.4,0.2-2.8,0.3-4.1,0.3c-3.4,0-6.3-0.6-8.7-1.7c-2.4-1.1-4.4-2.5-5.9-4.3c-1.5-1.7-2.7-3.7-3.4-5.8c-0.7-2.1-1.1-4.2-1.1-6.2
		c0-2.6,0.5-4.9,1.5-7.1s2.3-4.1,4-5.7s3.7-2.8,6-3.7c2.3-0.9,4.8-1.3,7.5-1.3c1.9,0,3.6,0.2,5.3,0.6c1.7,0.4,3.2,1,4.7,1.8
		c1,0.5,1.8,1.1,2.5,1.7c0.7,0.6,1.4,1.2,1.9,1.8c0.5,0.6,1,1.2,1.4,1.8c0.4,0.6,0.7,1.1,1.1,1.6l-2.8,1.6c-0.3-0.5-0.6-0.9-0.8-1.3
		c-0.3-0.4-0.6-0.9-1.1-1.5c-1.4-1.8-3.2-3.1-5.4-3.9c-2.1-0.8-4.3-1.2-6.6-1.2c-2.3,0-4.4,0.4-6.3,1.1c-1.9,0.8-3.6,1.8-5,3.1
		c-1.4,1.3-2.5,2.9-3.2,4.8c-0.8,1.8-1.2,3.9-1.2,6.1c0,2,0.4,3.9,1.1,5.6c0.7,1.8,1.7,3.3,3.1,4.7c1.3,1.3,3,2.4,4.9,3.2
		c1.9,0.8,4.1,1.2,6.6,1.2c2.4,0,4.4-0.3,6.1-1s3.1-1.4,4.2-2.4c1.1-1,2.1-1.8,2.7-2.8c0.7-0.9,1.2-1.7,1.5-2.3l3.1,1.5
		C476,38.8,475.7,39.4,475.3,39.9z M522.5,47.4h-33.8V13.6h32.4v2.8H492v11.9h27v2.8h-27v13.5h30.5V47.4z M572,47.5h-3l-29-29.6
		v29.6h-3V13.6h3l29,29.7V13.6h3V47.5z M621.8,47.4H588V13.6h32.4v2.8h-29.1v11.9h26.9v2.8h-26.9v13.5h30.5V47.4z"/>
	<path fill="none" d="M63.3,13.6L46.6,47.5H50l4.3-8.8h21.8l4.4,8.8H84L66.9,13.6H63.3z M55.6,36l9.5-19.4L74.8,36H55.6z"/>
	<polygon fill="none" points="128.5,43.3 99.5,13.6 96.5,13.6 96.5,47.5 99.5,47.5 99.5,17.9 128.5,47.5 131.5,47.5 131.5,13.6 
		128.5,13.6 	"/>
	<polygon fill="none" points="143.6,16.4 158.8,16.4 158.8,47.5 162,47.5 162,16.4 176.6,16.4 176.6,13.6 143.6,13.6 	"/>
	<polygon fill="none" points="220.5,28.1 192.1,28.1 192.1,13.6 188.8,13.6 188.8,47.5 192.1,47.5 192.1,30.9 220.5,30.9 
		220.5,47.5 223.8,47.5 223.8,13.6 220.5,13.6 	"/>
	<path fill="none" d="M265.1,32.2c0.7,0,1.5-0.1,2.3-0.3c0.8-0.2,1.5-0.4,2.3-0.7c0.8-0.3,1.5-0.7,2.1-1.2c1.3-1,2.1-2.1,2.6-3.4
		c0.5-1.3,0.7-2.6,0.7-3.8c0-1.7-0.4-3.3-1.2-4.7c-0.7-1.4-1.8-2.5-3.1-3.2c-1.1-0.6-2.4-1-3.7-1.1c-1.3-0.1-2.5-0.2-3.7-0.2h-23.6
		v33.8h3.3V32.3h15.5L272,47.4h4.6L263,32.3C263.7,32.3,264.3,32.2,265.1,32.2z M243.4,29.5h-0.1H243.4V16.3h20.2
		c0.9,0,1.9,0.1,2.9,0.2s1.9,0.5,2.8,1.2c0.6,0.5,1.2,1.1,1.6,2c0.5,0.9,0.7,1.9,0.7,3c0,0.8-0.1,1.6-0.4,2.4
		c-0.2,0.8-0.6,1.6-1.2,2.2c-1,1.1-2.2,1.7-3.7,1.9s-3.1,0.3-4.8,0.3H243.4z"/>
	<path fill="none" d="M323.3,18.2c-1.6-1.7-3.7-3.1-6.2-4.1s-5.4-1.6-8.8-1.6c-3.1,0-5.9,0.5-8.4,1.6c-2.4,0.9-4.6,2.2-6.3,3.8
		c-1.7,1.6-3.1,3.5-4,5.7c-0.9,2.2-1.4,4.5-1.4,7s0.5,4.9,1.4,7.1c0.9,2.2,2.3,4.1,4,5.7c1.7,1.6,3.8,2.8,6.2,3.7
		c2.4,0.9,5.1,1.3,8.1,1.3c3.1,0,5.9-0.4,8.4-1.4s4.6-2.3,6.4-3.9c1.8-1.6,3.2-3.5,4.1-5.7c0.9-2.2,1.4-4.5,1.4-7
		c0-2.2-0.4-4.4-1.2-6.5C326.2,21.8,324.9,19.9,323.3,18.2z M323.2,36.7c-0.9,1.9-2,3.5-3.5,4.8s-3.2,2.3-5.2,3
		c-1.9,0.7-4.1,1-6.3,1c-2.3,0-4.5-0.3-6.5-1c-2-0.6-3.7-1.6-5.2-2.9c-1.5-1.3-2.7-2.9-3.5-4.7c-0.9-1.9-1.3-4-1.3-6.3
		c0-1.8,0.3-3.5,0.9-5.3s1.5-3.4,2.8-4.8c1.2-1.4,2.8-2.6,4.8-3.5c1.9-0.9,4.3-1.5,7-1.6c1.4,0,2.7,0,4,0.1c1.2,0.2,2.3,0.5,3.3,0.8
		s1.8,0.6,2.5,1c0.7,0.3,1.2,0.6,1.6,0.9c1,0.8,1.9,1.6,2.7,2.5c0.7,1,1.3,2,1.8,3s0.9,2.1,1.1,3.2c0.2,1.2,0.3,2.2,0.3,3.3
		C324.5,32.6,324,34.8,323.2,36.7z"/>
	<path fill="none" d="M374.1,16.4c-0.7-0.7-1.4-1.2-2.2-1.6c-0.8-0.4-1.6-0.7-2.4-0.9c-0.8-0.2-1.7-0.3-2.5-0.3s-1.6,0-2.4,0h-22.3
		v33.9h3.3V32.3H364c1.2,0,2.5-0.1,3.9-0.2c1.5-0.2,2.9-0.6,4.2-1.4c1.4-0.8,2.4-1.8,3.2-3.2s1.2-2.9,1.2-4.7c0-1.2-0.2-2.4-0.6-3.5
		C375.5,18.2,374.9,17.2,374.1,16.4z M372.7,24.2c0,0.4-0.2,0.9-0.4,1.4s-0.5,0.9-0.9,1.4c-0.3,0.5-0.9,0.9-1.5,1.3
		c-1,0.7-2.1,1-3.4,1.1c-1.3,0.1-2.5,0.1-3.7,0.1h-17.2h-0.1V16.4h19.3c2,0,3.6,0.3,4.8,0.8s2.1,1.5,2.7,2.9
		c0.2,0.5,0.3,0.9,0.4,1.4c0.1,0.5,0.1,1,0.1,1.4C372.8,23.3,372.7,23.8,372.7,24.2z"/>
	<path fill="none" d="M422.6,18.2c-1.6-1.7-3.7-3.1-6.2-4.1s-5.4-1.6-8.8-1.6c-3.1,0-5.9,0.5-8.4,1.6c-2.4,0.9-4.6,2.2-6.3,3.8
		c-1.7,1.6-3.1,3.5-4,5.7c-0.9,2.2-1.4,4.5-1.4,7s0.5,4.9,1.4,7.1c0.9,2.2,2.3,4.1,4,5.7c1.7,1.6,3.8,2.8,6.2,3.7
		c2.4,0.9,5.1,1.3,8.1,1.3c3.1,0,5.9-0.4,8.4-1.4s4.6-2.3,6.4-3.9c1.8-1.6,3.2-3.5,4.1-5.7c0.9-2.2,1.4-4.5,1.4-7
		c0-2.2-0.4-4.4-1.2-6.5C425.5,21.8,424.2,19.9,422.6,18.2z M422.5,36.7c-0.9,1.9-2,3.5-3.5,4.8s-3.2,2.3-5.2,3
		c-1.9,0.7-4.1,1-6.3,1c-2.3,0-4.5-0.3-6.5-1c-2-0.6-3.7-1.6-5.2-2.9c-1.5-1.3-2.7-2.9-3.5-4.7c-0.9-1.9-1.3-4-1.3-6.3
		c0-1.8,0.3-3.5,0.9-5.3s1.5-3.4,2.8-4.8c1.2-1.4,2.8-2.6,4.8-3.5c1.9-0.9,4.3-1.5,7-1.6c1.4,0,2.7,0,4,0.1c1.2,0.2,2.3,0.5,3.3,0.8
		s1.8,0.7,2.5,1s1.2,0.6,1.6,0.9c1,0.8,1.9,1.6,2.7,2.5c0.7,1,1.3,2,1.8,3s0.9,2.1,1.1,3.2c0.2,1.2,0.3,2.2,0.3,3.3
		C423.8,32.6,423.3,34.8,422.5,36.7z"/>
	<path fill="none" d="M471.7,39.1c-0.6,1-1.6,1.8-2.7,2.8c-1.1,1-2.5,1.7-4.2,2.4s-3.7,1-6.1,1c-2.5,0-4.7-0.4-6.6-1.2
		c-1.9-0.8-3.6-1.9-4.9-3.2c-1.4-1.4-2.4-2.9-3.1-4.7c-0.7-1.7-1.1-3.6-1.1-5.6c0-2.2,0.4-4.3,1.2-6.1c0.7-1.9,1.8-3.5,3.2-4.8
		c1.4-1.3,3.1-2.3,5-3.1c1.9-0.7,4-1.1,6.3-1.1c2.3,0,4.5,0.4,6.6,1.2c2.2,0.8,4,2.1,5.4,3.9c0.5,0.6,0.8,1.1,1.1,1.5
		c0.2,0.4,0.5,0.8,0.8,1.3l2.8-1.6c-0.4-0.5-0.7-1-1.1-1.6c-0.4-0.6-0.9-1.2-1.4-1.8c-0.5-0.6-1.2-1.2-1.9-1.8
		c-0.7-0.6-1.5-1.2-2.5-1.7c-1.5-0.8-3-1.4-4.7-1.8c-1.7-0.4-3.4-0.6-5.3-0.6c-2.7,0-5.2,0.4-7.5,1.3c-2.3,0.9-4.3,2.1-6,3.7
		s-3,3.5-4,5.7s-1.5,4.5-1.5,7.1c0,2,0.4,4.1,1.1,6.2c0.7,2.1,1.9,4.1,3.4,5.8c1.5,1.8,3.5,3.2,5.9,4.3c2.4,1.1,5.3,1.7,8.7,1.7
		c1.3,0,2.7-0.1,4.1-0.3c1.4-0.2,2.8-0.6,4.1-1.1c1.3-0.6,2.6-1.3,3.8-2.1c1.2-0.9,2.3-1.9,3.4-3.2c0.5-0.6,1-1.2,1.3-1.7
		c0.4-0.5,0.7-1.1,1-1.6l-3.1-1.5C472.9,37.4,472.4,38.2,471.7,39.1z"/>
	<polygon fill="none" points="492,31.1 519,31.1 519,28.3 492,28.3 492,16.4 521.1,16.4 521.1,13.6 488.7,13.6 488.7,47.4 
		522.5,47.4 522.5,44.6 492,44.6 	"/>
	<polygon fill="none" points="569,43.3 540,13.6 537,13.6 537,47.5 540,47.5 540,17.9 569,47.5 572,47.5 572,13.6 569,13.6 	"/>
	<polygon fill="none" points="591.3,31.1 618.2,31.1 618.2,28.3 591.3,28.3 591.3,16.4 620.4,16.4 620.4,13.6 588,13.6 588,47.4 
		621.8,47.4 621.8,44.6 591.3,44.6 	"/>
</g>
</svg>
