<?xml version="1.0" encoding="utf-8"?>
<svg version="1.2" viewBox="0 0 680 60">
    <g>
        <path d="M66.9,13.6L84,47.5h-3.5l-4.4-8.8H54.3L50,47.5h-3.4l16.7-33.9H66.9z M65.1,16.6L55.6,36h19.2L65.1,16.6z"/>
        <path d="M131.5,13.6v33.9h-3l-29-29.6v29.6h-3V13.6h3l29,29.7V13.6H131.5z"/>
        <path d="M143.6,13.6h33v2.8H162v31.1h-3.2V16.4h-15.2V13.6z"/>
        <path d="M192.1,13.6v14.5h28.4V13.6h3.3v33.9h-3.3V30.9h-28.4v16.6h-3.3V13.6H192.1z"/>
        <path d="M263.4,13.6c1.2,0,2.4,0.1,3.7,0.2c1.3,0.1,2.6,0.5,3.7,1.1c1.3,0.7,2.4,1.8,3.1,3.2c0.8,1.4,1.2,3,1.2,4.7
            c0,1.2-0.2,2.5-0.7,3.8s-1.3,2.4-2.6,3.4c-0.6,0.5-1.3,0.9-2.1,1.2c-0.8,0.3-1.5,0.5-2.3,0.7c-0.8,0.2-1.6,0.3-2.3,0.3
            c-0.8,0-1.4,0.1-2.1,0.1l13.6,15.1h-4.6l-13.4-15.1h-15.5v15.1h-3.3V13.6H263.4z M243.3,29.5h18.2c1.7,0,3.3-0.1,4.8-0.3
            c1.5-0.2,2.7-0.8,3.7-1.9c0.6-0.6,1-1.4,1.2-2.2c0.3-0.8,0.4-1.6,0.4-2.4c0-1.1-0.2-2.1-0.7-3c-0.4-0.9-1-1.5-1.6-2
            c-0.9-0.7-1.8-1.1-2.8-1.2c-1-0.1-2-0.2-2.9-0.2h-20.2V29.5z"/>
        <path d="M308.3,12.5c3.4,0,6.3,0.6,8.8,1.6s4.6,2.4,6.2,4.1c1.6,1.7,2.9,3.6,3.7,5.7c0.8,2.1,1.2,4.3,1.2,6.5c0,2.5-0.5,4.8-1.4,7
            c-0.9,2.2-2.3,4.1-4.1,5.7c-1.8,1.6-3.9,2.9-6.4,3.9s-5.3,1.4-8.4,1.4c-3,0-5.7-0.4-8.1-1.3c-2.4-0.9-4.5-2.1-6.2-3.7
            c-1.7-1.6-3.1-3.5-4-5.7c-0.9-2.2-1.4-4.6-1.4-7.1c0-2.5,0.5-4.8,1.4-7c0.9-2.2,2.3-4.1,4-5.7c1.7-1.6,3.9-2.9,6.3-3.8
            C302.4,13,305.2,12.5,308.3,12.5z M307.2,15.4c-2.7,0.1-5.1,0.7-7,1.6c-2,0.9-3.6,2.1-4.8,3.5c-1.3,1.4-2.2,3-2.8,4.8
            c-0.6,1.8-0.9,3.5-0.9,5.3c0,2.3,0.4,4.4,1.3,6.3c0.8,1.8,2,3.4,3.5,4.7c1.5,1.3,3.2,2.3,5.2,2.9c2,0.7,4.2,1,6.5,1
            c2.2,0,4.4-0.3,6.3-1c2-0.7,3.7-1.7,5.2-3c1.5-1.3,2.6-2.9,3.5-4.8c0.8-1.9,1.3-4.1,1.3-6.5c0-1.1-0.1-2.1-0.3-3.3
            c-0.2-1.1-0.6-2.2-1.1-3.2c-0.5-1-1.1-2-1.8-3c-0.8-0.9-1.7-1.7-2.7-2.5c-0.4-0.3-0.9-0.6-1.6-0.9c-0.7-0.4-1.5-0.7-2.5-1
            c-1-0.3-2.1-0.6-3.3-0.8C309.9,15.4,308.6,15.4,307.2,15.4z"/>
        <path d="M342.3,13.6h22.3c0.8,0,1.6,0,2.4,0c0.8,0,1.7,0.1,2.5,0.3s1.6,0.5,2.4,0.9c0.8,0.4,1.5,0.9,2.2,1.6
            c0.8,0.8,1.4,1.8,1.8,2.9c0.4,1.1,0.6,2.3,0.6,3.5c0,1.8-0.4,3.3-1.2,4.7c-0.8,1.4-1.8,2.4-3.2,3.2c-1.3,0.8-2.7,1.2-4.2,1.4
            c-1.4,0.1-2.7,0.2-3.9,0.2h-18.4v15.2h-3.3V13.6z M345.6,29.5h17.2c1.2,0,2.4,0,3.7-0.1c1.3-0.1,2.4-0.4,3.4-1.1
            c0.6-0.4,1.2-0.8,1.5-1.3c0.4-0.5,0.7-0.9,0.9-1.4c0.2-0.5,0.4-1,0.4-1.4s0.1-0.9,0.1-1.3c0-0.4,0-0.9-0.1-1.4
            c-0.1-0.5-0.2-0.9-0.4-1.4c-0.6-1.4-1.5-2.4-2.7-2.9c-1.2-0.5-2.8-0.8-4.8-0.8h-19.3V29.5z"/>
        <path d="M407.6,12.5c3.4,0,6.3,0.6,8.8,1.6s4.6,2.4,6.2,4.1c1.6,1.7,2.9,3.6,3.7,5.7c0.8,2.1,1.2,4.3,1.2,6.5c0,2.5-0.5,4.8-1.4,7
            c-0.9,2.2-2.3,4.1-4.1,5.7c-1.8,1.6-3.9,2.9-6.4,3.9s-5.3,1.4-8.4,1.4c-3,0-5.7-0.4-8.1-1.3s-4.5-2.1-6.2-3.7
            c-1.7-1.6-3.1-3.5-4-5.7c-0.9-2.2-1.4-4.6-1.4-7.1c0-2.5,0.5-4.8,1.4-7c0.9-2.2,2.3-4.1,4-5.7c1.7-1.6,3.9-2.9,6.3-3.8
            C401.7,13,404.5,12.5,407.6,12.5z M406.5,15.4c-2.7,0.1-5.1,0.7-7,1.6c-2,0.9-3.6,2.1-4.8,3.5c-1.3,1.4-2.2,3-2.8,4.8
            c-0.6,1.8-0.9,3.5-0.9,5.3c0,2.3,0.4,4.4,1.3,6.3c0.8,1.8,2,3.4,3.5,4.7c1.5,1.3,3.2,2.3,5.2,2.9c2,0.7,4.2,1,6.5,1
            c2.2,0,4.4-0.3,6.3-1c2-0.7,3.7-1.7,5.2-3c1.5-1.3,2.6-2.9,3.5-4.8c0.8-1.9,1.3-4.1,1.3-6.5c0-1.1-0.1-2.1-0.3-3.3
            c-0.2-1.1-0.6-2.2-1.1-3.2c-0.5-1-1.1-2-1.8-3c-0.8-0.9-1.7-1.7-2.7-2.5c-0.4-0.3-0.9-0.6-1.6-0.9s-1.5-0.7-2.5-1
            c-1-0.3-2.1-0.6-3.3-0.8C409.2,15.4,407.9,15.4,406.5,15.4z"/>
        <path d="M476.3,38.3c-0.3,0.5-0.6,1.1-1,1.6c-0.3,0.5-0.8,1.1-1.3,1.7c-1.1,1.3-2.2,2.3-3.4,3.2c-1.2,0.8-2.5,1.5-3.8,2.1
            c-1.3,0.5-2.7,0.9-4.1,1.1c-1.4,0.2-2.8,0.3-4.1,0.3c-3.4,0-6.3-0.6-8.7-1.7c-2.4-1.1-4.4-2.5-5.9-4.3c-1.5-1.7-2.7-3.7-3.4-5.8
            s-1.1-4.2-1.1-6.2c0-2.6,0.5-4.9,1.5-7.1s2.3-4.1,4-5.7s3.7-2.8,6-3.7c2.3-0.9,4.8-1.3,7.5-1.3c1.9,0,3.6,0.2,5.3,0.6
            s3.2,1,4.7,1.8c1,0.5,1.8,1.1,2.5,1.7c0.7,0.6,1.4,1.2,1.9,1.8c0.5,0.6,1,1.2,1.4,1.8c0.4,0.6,0.7,1.1,1.1,1.6l-2.8,1.6
            c-0.3-0.5-0.6-0.9-0.8-1.3c-0.3-0.4-0.6-0.9-1.1-1.5c-1.4-1.8-3.2-3.1-5.4-3.9c-2.1-0.8-4.3-1.2-6.6-1.2c-2.3,0-4.4,0.4-6.3,1.1
            c-1.9,0.8-3.6,1.8-5,3.1c-1.4,1.3-2.5,2.9-3.2,4.8c-0.8,1.8-1.2,3.9-1.2,6.1c0,2,0.4,3.9,1.1,5.6c0.7,1.8,1.7,3.3,3.1,4.7
            c1.3,1.3,3,2.4,4.9,3.2c1.9,0.8,4.1,1.2,6.6,1.2c2.4,0,4.4-0.3,6.1-1c1.7-0.7,3.1-1.4,4.2-2.4s2.1-1.8,2.7-2.8
            c0.7-0.9,1.2-1.7,1.5-2.3L476.3,38.3z"/>
        <path d="M488.7,13.6h32.4v2.8H492v11.9H519v2.8H492v13.5h30.5v2.8h-33.8V13.6z"/>
        <path d="M572,13.6v33.9h-3l-29-29.6v29.6h-3V13.6h3l29,29.7V13.6H572z"/>
        <path d="M588,13.6h32.4v2.8h-29.1v11.9h26.9v2.8h-26.9v13.5h30.5v2.8H588V13.6z"/>
    </g>
</svg>
